# xmcd CD database file
#
# Track frame offsets:
#	150
#	158611
#	230343
#	302022
#
# Disc length: 4120 seconds
#
# Revision: 0
# Processed by: cddbd v1.5.2PL0 Copyright (c) Steve Scherf et al.
# Submitted via: CDex 1.70beta2
#
DISCID=21101604
DTITLE=＿ - ELEMENT GIRLS 元素周期 聴いて萌えちゃう化学の基本
DYEAR=2009
DGENRE=ドラマCD
TTITLE0=ようこそ、聖メンデレーエフ学園へ
TTITLE1=世界が滅びるその日まで
TTITLE2=元素大戦争！？
TTITLE3=元素周期・バージョンMOE
EXTD=YEAR: 2009
EXTT0=
EXTT1=
EXTT2=
EXTT3=
PLAYORDER=
